<?xml version="1.0" encoding="UTF-8"?>
<svg id="Capa_2" data-name="Capa 2" xmlns="http://www.w3.org/2000/svg" viewBox="0 0 1197 888.74">
  <defs>
    <style>
      .cls-1 {
        fill: #f37904;
        stroke-width: 0px;
      }
    </style>
  </defs>
  <g id="Capa_1-2" data-name="Capa 1">
    <g>
      <path class="cls-1" d="m136,.64c-1.9.4-4.6,1.3-6,2.1-1.3.7-6.1,1.4-10.7,1.5-10.5.4-12.5,1.6-15,9.2l-1.9,5.8-8,3.2c-8.8,3.5-10.9,5.8-9.2,10.2.5,1.4,2.4,3.8,4.2,5.3,1.9,1.5,3.6,3.7,3.9,4.8.7,2.5.5,2.5-4.3-.5-5-3.1-7-3.1-10,0-3,3.2-14.2,10.5-16.1,10.5-.8,0-2,.5-2.7,1.2-.8.8-1.5.8-2.4.1-3.5-2.8-8.6-3.4-17-2.2-11,1.6-13.8,3.6-13.8,9.4,0,5.3-.9,5.9-9.5,7-3.3.4-6.5,1.1-7.2,1.7-.7.5-2,3.3-2.9,6.1s-3,7.5-4.6,10.3c-2,3.8-2.8,6.6-2.8,10.4,0,7.1,1.2,9,5.8,9,3.3,0,3.9.4,5,3.2.9,2.5.9,3.7-.4,6.4-3.3,6.9.4,10.5,7.1,7,2.7-1.4,3-1.4,3.7.2,1.3,3.4.8,6.5-2.2,12.6-5.4,10.9-2.1,12.8,11.2,6.2,5.1-2.5,10.2-4.6,11.5-4.6h2.2l-2,4.7c-1.1,2.7-2.7,6.2-3.6,8-1.3,2.9-1.3,3.5.4,6.5,2.3,4.3,7.3,8.8,9.6,8.8,3.2,0,1.3,2.2-3.3,3.7-10.6,3.5-10.9,9.8-.7,13.4l3.7,1.3-5.4,5.6c-2.9,3-5.9,6.5-6.5,7.7s-1.1,7.1-1.1,13.3c0,14.5,2.4,20,8.9,20,2,0,6.2-4.3,11.4-11.5q3.6-5.1,17.9-9.9c7.9-2.6,16-5.8,18.1-7.2l3.7-2.4,1,2.5c.5,1.4,1.7,2.5,2.8,2.5,3.4,0,5.5,2.4,4.8,5.6-.5,2.2-1.9,3.6-5.6,5.7-5.5,3.1-10,7.9-10,10.8,0,1,1.3,3.3,2.9,5.1,2.8,3.2,3.2,3.3,10.9,3.4,4.3,0,8.4.4,9,.8,1.5.9,4.9-.9,8.8-4.6,2-1.9,3.4-2.6,3.8-1.9,1.2,1.9,4.4,1.2,9.9-1.9,5.4-3,8.7-3.8,8.7-2,0,2.4,12.3,6.2,19.7,5.9,3.2-.1,8.1.2,11,.6,7.2,1.1,13.5-1.9,15.7-7.6.9-2.2,1.6-4.8,1.6-5.9,0-2.3.6-2.4,4-.5,1.4.8,4.1,1.4,6.1,1.5,1.9,0,5.9,1.1,8.8,2.6,6.5,3.1,9.1,2.8,11.1-1.1.8-1.7,1.5-3.1,1.5-3.2.1-.1,2.7.7,5.9,1.9,4.7,1.8,6.2,1.9,7.7.9,2.9-1.7,3.9-.6,3.9,4.3,0,2.8.6,4.8,1.6,5.7,1.7,1.4,1.5,3.9-1,10.7-1.3,3.5-1.4,5.1-.6,8.3,1.3,4.8,2.8,5.5,8.6,4.2,3.4-.8,5.3-.7,9.1.7,7,2.4,14.3,5.9,14.3,6.9,0,.4-1.3,2.6-2.8,4.7-1.6,2.1-3.7,6.1-4.8,8.7-1.3,3.4-3.2,5.8-6.3,8-2.4,1.8-4.7,4.2-5.2,5.4-.5,1.3-2,2.4-4.1,2.8-1.8.4-5.2,2.3-7.5,4.1-2.5,2.1-5.2,3.4-7,3.4-3.3,0-5,1.8-7.8,8-1.1,2.5-2.7,5.1-3.6,5.7-1,.7-3.1,3.5-4.8,6.3-2.6,4.2-3.6,5-6,5-2.9,0-6.1,2.2-6.1,4.2,0,.5,2.3,3.5,5,6.6,2.8,3.1,5.5,7.2,6,9.2.6,1.9,1.4,4.1,1.9,4.9.6.9.4,1.9-.6,2.9-1.1,1.2-1.3,2.9-.8,8.1.5,5.5.3,7.4-1.5,11.4-2.3,5.2-2.1,9.8.7,12.9,1.3,1.5,1.2,2-.7,4.6s-2,3.4-1.1,6.9c.6,2.2,2,5.2,3.1,6.6l2.1,2.6-5.3,3.3c-2.9,1.8-6.6,4-8.2,4.8-3.5,1.8-7.6,7.6-7.6,10.8,0,4.1,3.1,9.4,6.4,10.7,3.2,1.3,6.6,6.8,6.6,10.4,0,.9-1.1,2.8-2.5,4.1-1.7,1.6-2.5,3.4-2.5,5.8,0,2-1.5,6.2-3.5,10.2-2,3.7-3.9,8-4.4,9.6-.7,2.7-1.2,2.9-8.2,3.9-4.8.7-9.6,2.3-13.8,4.4-5,2.7-6.7,3.1-8.5,2.3-4.2-2-10.5-3.5-12-2.9-2.6,1-1.8,5.1,1.7,9.8,1.8,2.4,3.8,5.6,4.4,7.1.7,1.4,3.4,3.8,6.1,5.4l5,2.8.7,8c.7,8.6,1.4,10.5,5.1,14.5,1.3,1.4,2.4,3.5,2.4,4.7,0,1.1,1.1,3.1,2.5,4.4,1.7,1.6,2.5,3.4,2.5,5.6,0,5.1,3.9,6.7,10.1,4,2.7-1.2,6.9,3.7,6.9,8.2,0,3.4-.4,4-3.5,5.5-4.1,1.9-7.5,7-7.5,11.1,0,2.9-6.4,13.6-12.6,20.9-1.8,2.1-3.5,5.4-3.8,7.3-.4,1.9-2,6.1-3.5,9.4-3.5,7.3-3.1,10,1.8,13.9,4.1,3.3,5.2,5.2,7.6,13.3,1.8,5.8,5.2,10.6,9.1,12.6,1.2.6,4.4.9,7.7.5l5.5-.6-.9,3.9c-.6,2.2-1.3,4.9-1.6,6.1s-1.3,2.9-2.2,3.7c-1.6,1.5-1.9,1.4-3.6-.4-2.8-3.1-6-2.5-8.3,1.4-1.3,2.1-3.3,3.8-5.5,4.5-2.6.9-3.8,2.1-5.2,5.4-3.5,8.3-3.9,9.2-6.1,11.7-1.2,1.4-3.2,4.3-4.3,6.5s-3.2,5.3-4.6,6.9-3,4.7-3.7,6.8c-.6,2.1-1.9,4.5-3,5.4-2.6,2.4-2.2,5.7,1.4,11.6,2.8,4.5,3.2,6.2,3.5,13,.1,4.3.7,8.6,1.2,9.6.5.9,1.2,4.5,1.6,8,.5,4.2,1.2,6.5,2.4,7.1.9.5,9.7,1,19.6,1.2,14.5.3,18.7.6,21.5,2,2,1,5.4,2.1,7.5,2.4,2.2.4,4.5,1.1,5,1.5.6.4,2.1,1,3.5,1.3,1.4.4,6.4,4.2,11,8.6,4.7,4.4,10.2,8.7,12.3,9.7,2,.9,3.7,2.2,3.7,2.8s.5,4.2,1,8c1,6.3.9,7.1-1,9.1-3.1,3.3-2.4,5.9,3.1,11.9,4.5,5,5.5,5.6,9,5.6h3.9l-.2,8.3c-.3,7.1,0,8.6,2,11.4,1.2,1.7,2.2,3.9,2.2,5,.1,1,4.5,6.4,9.9,12,10.1,10.6,12.9,12.1,15.2,8.5,1.1-1.7,1.3-1.7,3.8.7,1.4,1.4,4,4.5,5.7,6.9,3.9,5.4,5.4,6.4,13.4,9.1l6.5,2.1,8.5-2.3c12.1-3.4,20-9.2,20-14.8,0-.6,1.5-3.2,3.3-5.8,1.9-2.6,3.7-5.8,4-7.1,1.4-5.5,4.4-8.6,12-12.4,4.2-2.2,9.4-5.7,11.7-7.8,3.9-3.8,4.2-3.9,6.5-2.4,2.7,1.8,7.6,2.1,10.3.6.9-.5,3.8-1.8,6.4-2.9,2.8-1.2,5.5-3.2,6.9-5.3,1.2-1.8,4.9-5.5,8.1-8.1,3.3-2.7,6.4-5.9,6.9-7.1,1-2,1.7-2.2,13.2-2.3,25.3-.4,34.5-.9,35.8-1.9,3.2-2.6,7.6-2.6,12.8,0,2.8,1.4,6.7,2.6,8.7,2.6,2.1,0,4.6.7,5.6,1.7,2.9,2.6,19.6,2,25.6-.9,4.8-2.3,8.8-3.4,17.4-5.1,5.4-1,5.9-.9,12.7,2.3,3.9,1.9,7.1,3.8,7.1,4.2s.5.8,1.2.8c.6,0,1.9.7,2.8,1.5s3.1,1.8,4.8,2.1c2.7.5,3.6.2,5.9-2.5,1.6-1.7,3.9-5.2,5.3-7.8,1.9-3.6,3.4-4.9,6.5-6.1,5.5-1.9,9.6-1.7,11.4.6,1.2,1.5,3.2,2.1,8,2.4,5.5.4,6.7.8,8.6,3.2,1.8,2.2,2.9,2.7,5.5,2.4,2.7-.2,4.3-1.4,7.8-5.8,2.4-3,6.3-7.7,8.6-10.4,7-8.3,9.4-12.5,10.6-18.4.6-3.1,1.5-7.5,2.1-9.7s1.4-5.9,1.8-8.2c.6-3.3,1.8-5.1,5.5-8.5,6.2-5.5,14.7-11.8,15.9-11.8,1.5,0,5.8-5.1,6.9-8.2,1-2.9,4.6-5,11.8-7,9.8-2.6,11.9-3,17-2.9,8.6.2,22.5-3,32.8-7.5,4.2-1.8,5.2-2.8,5.2-4.7,0-2.8-3.7-6.5-7.6-7.6-1.5-.4-2.9-1.2-3.1-1.7-.2-.6,2.1-4,5-7.7,6-7.6,7.9-12.3,7.1-18.2-.5-3.4-.2-4.4,2-6.7,1.5-1.4,4-5.3,5.6-8.7,1.7-3.4,3.6-6.1,4.4-6.1s2.8-1.3,4.5-2.9c2.7-2.6,3.1-3.5,3.1-8.3s.4-5.9,3.5-9.5c2-2.3,5.2-5.2,7.3-6.4,2-1.3,5.8-4,8.4-6.1,2.6-2.2,6.9-4.7,9.5-5.6,6.4-2.3,11-5.2,15.8-10.2,2.2-2.3,6.1-5.2,8.7-6.6,11-5.6,11.4-10.9,1.6-24.1-4.6-6.3-5.5-6.8-14.1-8.3-8-1.4-10.9-3.5-14.4-10.3-2.9-5.8-4-9.7-5.4-20.7-.6-4.1-2.2-10.9-3.6-15-4.1-12-3.8-13.8,3.7-26,7.1-11.4,7.9-13,10.5-20.5,1.2-3.5,3.6-6.8,7.7-10.9,6.7-6.6,7.1-7.3,8.7-17.2,1.2-6.8,3.7-11.4,6.2-11.4s7.3-5,11.5-11.8c2.6-4,6.3-9.3,8.4-11.7,2.5-2.9,4.5-6.7,5.9-11.5,2.9-9.5,10.6-20.9,14.1-21,5.2,0,16.3-2.9,18.4-4.8,1.1-1,3.3-2.6,4.9-3.5,4.9-3.1,3-7.2-5.7-12.6-2-1.3-3.6-3.1-3.6-4,0-1,4.3-6,9.5-11.2,10-9.8,19.4-15.9,24.8-15.9,3.5,0,6.4-1.5,9.9-5.1,1.5-1.6,4-3.1,5.5-3.5,1.6-.3,8.2-2.4,14.8-4.7,11.2-3.8,12.8-4,24.5-4.3,15-.2,25.7-1.8,28.3-4.1,1-1,2.8-3.8,3.9-6.3,3.4-7.5,6.6-10.9,16.7-17.5,5.3-3.4,10.8-7.3,12.3-8.6,1.6-1.4,6.2-3.5,10.3-4.8,4.2-1.4,7.8-2.8,8.1-3.3.3-.4,1.4-.8,2.4-.8,1.7,0,10-8.3,10-10.1,0-.5,2.2-.9,5-.9,7.2,0,9.2-1.4,14.6-9.7,2.6-4.1,5.6-7.9,6.6-8.4,2.8-1.5,10.5-12.5,11.3-16,.7-3.3-.5-7.2-4.2-13.1-1.3-2.1-2.4-4.7-2.6-5.8s-.6-2.3-1-2.6c-.4-.4-.7-2.7-.7-5.1,0-4.2.1-4.3,3.3-4.3,4.1,0,5-.7,7.6-5.5,3.7-7,2.4-10.5-4-10.5-4.4,0-5.7-1.4-5.4-6,.4-6.5-3.5-9.8-7.8-6.5-1.6,1.2-2.5,1-6.5-1.2-5.2-2.8-10.7-2.7-19.3.2-4.9,1.7-11.5,7.7-12.1,11-.3,1.5-1,1.9-2.8,1.7-10.7-1.3-14-2.1-17.5-4.3-9.9-6.2-17.8-8.2-23.7-5.9-1.8.7-5.2,3.1-7.4,5.3l-4.2,3.9-3.3-5.6c-2.6-4.4-4.5-6.2-8.6-8.3-5.9-2.9-15.2-3.7-19.4-1.6s-11.8,5.3-12.5,5.3c-.3,0-2.1-1.3-3.9-2.8-2.8-2.6-3.1-3.1-1.9-4.7,2.1-2.9,1.7-7.8-1.1-11.6-1.3-1.9-2.9-4.3-3.4-5.4-1.4-3.1-6.2-7.5-8.2-7.5-1,0-3.4.7-5.3,1.6l-3.4,1.7-5.7-6.1-5.7-6.2-6.7.1c-7.3.1-12.6-1.5-19.2-5.7-4.9-3.1-11.6-4.2-14.8-2.4-2,1-2.2,1.7-1.8,6.8.3,3.1.9,7.2,1.2,9.1.7,3,.6,3.3-1.2,2.7-1.1-.4-5.3-.2-9.3.4-5,.7-7.7.7-8.4,0-1.9-1.9-5.3-1.1-7.1,1.7-1.7,2.5-1.8,2.5-2.8.7-2-3.8-5.1-6.4-7.6-6.4-1.4,0-5.7.9-9.6,2-8.9,2.4-13.4,1.4-18.5-4.4-1.9-2.1-5.8-4.9-8.7-6.2-4.5-2-6.5-2.3-17-2-11.2.2-11.9.3-12.9,2.5l-1.2,2.3-1.8-2.8c-1-1.6-2.2-3.1-2.5-3.4-1.2-.9-5.4-9.3-6.9-14-1.2-3.5-2-4.6-3.9-4.8-1.4-.2-2.8.3-3.3,1.2-1.4,2.5-20.6,1.1-27.3-1.9-2.8-1.3-6.9-2.9-9.2-3.6-3.6-1.2-4.2-1.8-5.4-5.9-1.2-3.7-1.9-4.6-4-4.8-2.2-.3-2.9.3-4,2.7-2.9,6.6-4.8,2.3-2.5-5.8,2.3-8.2,2.1-11.7-1-14.8-2.5-2.4-2.8-2.5-11-1.8-8.3.7-8.5.6-10.5-1.9-1.3-1.7-3-2.6-4.9-2.6-1.6,0-4.2-1.1-6-2.6-2.5-2.2-3.8-2.6-7-2.1-3.8.5-16.6,4.8-20.4,6.8-1,.6-4.2,1-7,.8-2.8-.1-6.7.1-8.8.5-3.3.7-4.2.4-9-3.2-6.9-5.2-21-10.2-28.8-10.2-4.3,0-6.9-.6-10.4-2.6l-4.6-2.6-5.3,1.7c-2.8,1-6.2,2.2-7.4,2.8-1.6.7-2.6.7-3.6-.1-2-1.7-19.6-1.4-22.1.4-1.1.8-2.8,1.4-3.6,1.4-1.8,0-5.7-3.8-7.4-7.2-4.1-8.3-22.6-7.8-31.7.8-2.1,2.1-3,2.3-5.1,1.5-1.5-.5-2.9-1.5-3.3-2-1-1.8-5.4-1.2-8.5,1.1-2.3,1.7-5,2.3-13.7,2.9-5.9.4-13,1.3-15.8,1.9-5.5,1.3-23.4.6-26.3-1-.9-.5-4.2-1.7-7.2-2.6s-6.1-2.1-6.8-2.7-5.9-1.1-11.5-1.2c-8.7-.1-11-.5-15.7-2.7-5.2-2.4-11.8-3.7-35.5-6.8-8-1.1-11.7-3.1-13-7-.7-2.1-7.6-6-10.7-6-1.6,0-4.9,2.1-9.2,5.9-8.6,7.6-12.4,8.6-27.9,7-8.1-.8-18.9-.8-40.8.1-33.9,1.3-34.4,1.2-47.9-5.3-3-1.5-6.6-3.7-8-4.9-3-2.8-10.6-7.8-11.8-7.8-.4,0-3.4-1.4-6.7-3.1-6.4-3.3-14.7-4.5-21.5-3Z"/>
      <path class="cls-1" d="m1165.5,431.64c-2.2,1-6.6,2.1-9.9,2.5-8.1.9-9.3,1.8-11.2,8.2-1.6,5.5-1.6,5.6.7,8,1.7,1.8,3.3,2.4,6.3,2.4,6.3,0,10.7,1.6,15.1,5.5,2.2,1.9,4.6,3.5,5.3,3.5s3.7,1.5,6.6,3.4c6.6,4.2,9,5,11.5,3.6,2.9-1.5,7.1-8,7.1-10.9,0-2.7-3.5-9-6.2-10.9-1-.7-1.8-2-1.8-2.9,0-.8-.8-2.8-1.7-4.4-1.3-2.1-2.5-2.9-4.6-2.9s-4.3-1.2-6.8-3.5c-4.5-4-5-4.1-10.4-1.6Z"/>
      <path class="cls-1" d="m1066.5,449.14c-8.9,4.1-23.9,16-27.6,21.8-1.7,2.5-4.4,4.6-9.1,6.8-7.4,3.5-10.5,6.1-11.8,9.5-1.5,3.9.5,9.7,5.2,15.3,1.6,1.8,2.8,3.7,2.8,4.2,0,.6,1.5,1,3.3,1,2.4,0,4.4-1.2,8.1-4.6,4.9-4.5,9.3-7,10.5-5.8.8.8.6,11.5-.3,14-1.3,3.5,3.7,6.2,12.5,7,7.6.6,12.9,2,12.9,3.4,0,.5,1.2,2.2,2.6,3.9,3.7,4.4,7,4.1,12.5-1,2.4-2.3,7.5-6.9,11.3-10.3,8.6-7.6,11.6-13.4,11.6-22.3,0-5.5.3-6.4,2.6-8.2,1.5-1.2,3.2-2.1,3.9-2.1,1.9,0,3.4-5.1,2.3-8-.5-1.3-2-3.9-3.4-5.7-3-4-6.7-4.3-13.1-1.2-3.7,1.8-4.7,1.9-8,.9-6.1-2-6.6-2.7-6-9.1.8-7-.3-8.6-6.8-9.9-10-2-10.9-2-16,.4Z"/>
      <path class="cls-1" d="m953,536.44c-.8.4-2.7,2-4.2,3.7-2.4,2.7-3,2.9-4.5,1.8-6.8-4.7-8.4-4.2-13,4.4-4,7.6-4.5,8.1-9.2,9.4-5.8,1.5-6.7,5.2-2.6,11.2,1.4,2,2.5,4.8,2.5,6.1,0,3.7,2,8.5,3.7,9.1,2.8,1.1,8-.5,11.4-3.6,8.8-7.7,10.9-9.9,10.9-11.4,0-2.3,2.8-7.2,6.2-10.7,3.5-3.7,8.8-12.5,8.8-14.7,0-3.2-6.5-6.7-10-5.3Z"/>
    </g>
  </g>
</svg>