<?xml version="1.0" encoding="UTF-8" standalone="no"?>
<!-- Created with Inkscape (http://www.inkscape.org/) -->

<svg
   width="234.91995mm"
   height="116.35906mm"
   viewBox="0 0 234.91994 116.35907"
   version="1.1"
   id="svg1"
   inkscape:version="1.4 (86a8ad7, 2024-10-11)"
   sodipodi:docname="Galp Logo 2024.svg"
   xmlns:inkscape="http://www.inkscape.org/namespaces/inkscape"
   xmlns:sodipodi="http://sodipodi.sourceforge.net/DTD/sodipodi-0.dtd"
   xmlns="http://www.w3.org/2000/svg"
   xmlns:svg="http://www.w3.org/2000/svg">
  <sodipodi:namedview
     id="namedview1"
     pagecolor="#ffffff"
     bordercolor="#000000"
     borderopacity="0.25"
     inkscape:showpageshadow="2"
     inkscape:pageopacity="0.0"
     inkscape:pagecheckerboard="0"
     inkscape:deskcolor="#d1d1d1"
     inkscape:document-units="mm"
     inkscape:zoom="0.34876894"
     inkscape:cx="37.273961"
     inkscape:cy="-7.1680695"
     inkscape:window-width="1920"
     inkscape:window-height="1001"
     inkscape:window-x="-9"
     inkscape:window-y="-9"
     inkscape:window-maximized="1"
     inkscape:current-layer="layer1" />
  <defs
     id="defs1" />
  <g
     inkscape:label="Layer 1"
     inkscape:groupmode="layer"
     id="layer1"
     transform="translate(-171.04454,-112.90324)">
    <path
       class="st0"
       d="m 338.79207,183.65452 v 16.47193 c -19.86725,0 -30.6956,-11.10365 -30.6956,-26.6579 v -60.56531 h 17.38959 v 58.27116 c -0.046,8.90126 4.08357,12.48012 13.30601,12.48012"
       id="path1-1"
       style="fill:#ff5a00;stroke-width:0.458828" />
    <path
       class="st0"
       d="m 201.55661,212.79011 c 8.35067,0 13.48953,-5.50594 13.48953,-14.13191 v -56.98645 h 17.3896 v 57.35351 c 0,17.94018 -12.84718,30.23677 -31.42973,30.23677 -11.01187,0.046 -21.24374,-5.68947 -27.02497,-15.09544 l 15.18721,-8.25891 c 2.66119,4.26711 7.34124,6.83653 12.38836,6.88243"
       id="path2-7"
       style="fill:#ff5a00;stroke-width:0.458828" />
    <path
       class="st0"
       d="m 201.74013,184.43453 c -7.43301,0.046 -13.53541,-5.91887 -13.58131,-13.35189 0,-0.18354 0,-0.41295 0,-0.59648 -0.27529,-7.43301 5.55183,-13.67308 12.98485,-13.94838 0.18352,0 0.41294,0 0.59646,0 7.70831,0 13.3519,5.96478 13.3519,13.94838 0.36707,7.34125 -5.32241,13.5813 -12.70954,13.94837 -0.22941,0 -0.41294,0 -0.64236,0 m 0,-43.58867 c -17.48135,0 -30.69559,12.75542 -30.69559,29.59442 0,16.83899 13.21424,29.68617 30.69559,29.68617 17.48135,0 30.69561,-12.84718 30.69561,-29.68617 0,-16.839 -13.21426,-29.59442 -30.69561,-29.59442"
       id="path3-1"
       style="fill:#ff5a00;stroke-width:0.458828" />
    <path
       class="st0"
       d="m 300.43405,200.12645 c -10.09421,0 -17.38958,-6.33182 -17.38958,-18.1237 v -40.331 h 17.38958 z"
       id="path4"
       style="fill:#ff5a00;stroke-width:0.458828" />
    <path
       class="st0"
       d="m 269.73844,184.43453 c -7.43301,0.046 -13.53541,-5.91887 -13.58129,-13.35189 0,-0.18354 0,-0.41295 0,-0.59648 -0.2753,-7.43301 5.55181,-13.67308 12.98483,-13.94838 0.18353,0 0.41294,0 0.59646,0 7.70832,0 13.35191,5.96478 13.35191,13.94838 0.36707,7.34125 -5.32241,13.5813 -12.70954,13.94837 -0.18352,0 -0.41293,0 -0.64237,0 m 0,-43.58867 c -17.48133,0 -30.69559,12.75542 -30.69559,29.59442 0,16.83899 13.21426,29.68617 30.69559,29.68617 17.48136,0 30.69561,-12.84718 30.69561,-29.68617 0,-16.839 -13.21425,-29.59442 -30.69561,-29.59442"
       id="path5-1"
       style="fill:#ff5a00;stroke-width:0.458828" />
    <rect
       x="344.57333"
       y="141.67174"
       class="st0"
       width="17.389585"
       height="86.397316"
       id="rect5-5"
       style="fill:#ff5a00;stroke-width:0.458828" />
    <path
       class="st0"
       d="m 375.2689,184.43453 c -7.34124,0 -13.3519,-5.96476 -13.3519,-13.30602 0,-0.22941 0,-0.41293 0,-0.64235 -0.36705,-7.34125 5.32241,-13.58132 12.70954,-13.94838 0.22941,0 0.41295,0 0.64236,0 7.4789,-0.0458 13.53543,6.01066 13.58132,13.48954 0,0.13769 0,0.32119 0,0.45884 0.27529,7.43302 -5.55183,13.67307 -12.98484,13.94837 -0.18354,0 -0.41296,0 -0.59648,0 m 0,-43.58867 c -17.48136,0 -30.69561,12.8472 -30.69561,29.59442 0,16.74722 13.21425,29.68617 30.69561,29.68617 17.48134,0 30.69559,-12.75542 30.69559,-29.68617 0,-16.93077 -13.21425,-29.59442 -30.69559,-29.59442"
       id="path6-2"
       style="fill:#ff5a00;stroke-width:0.458828" />
    <path
       class="st1"
       d="m 344.57329,170.44028 v 0 c -0.13769,11.65424 6.6989,22.25315 17.38959,26.9332 v -26.88732 0 -26.88733 c -10.69069,4.68005 -17.52723,15.2331 -17.38959,26.84145"
       id="path7-7"
       style="fill:#b00f00;stroke-width:0.458828" />
  </g>
</svg>
