<?xml version="1.0" encoding="utf-8"?>
<!-- Generator: Adobe Illustrator 25.4.1, SVG Export Plug-In . SVG Version: 6.00 Build 0)  -->
<svg version="1.1" id="GANA_ENERGIA_OSCURO" xmlns="http://www.w3.org/2000/svg" xmlns:xlink="http://www.w3.org/1999/xlink"
	 x="0px" y="0px" viewBox="0 0 180.3 38" style="enable-background:new 0 0 180.3 38;" xml:space="preserve">
<style type="text/css">
	.st0{fill:#363546;}
	.st1{fill:#00CFA7;}
</style>
<g>
	<path id="Fill-1" class="st0" d="M45.5,18.4c0.1,0.5,0.1,1,0.1,1.6c0,5.2-3.7,8.9-8.8,8.9S27.6,25,27.6,20s4-8.9,9.1-8.9
		c3.8,0,7.1,1.8,8.3,5.1L41,17.3c-1-1.9-2.6-2.4-4.3-2.4c-2.8,0-4.9,2.2-4.9,5.1s2.2,5.1,5,5.1c2.2,0,3.9-1.2,4.5-3.1h-5.2v-3.6
		H45.5z"/>
	<path id="Fill-3" class="st0" d="M54.9,23.4v-0.3h-2.8c-1,0-1.7,0.5-1.7,1.3s0.7,1.3,1.8,1.3C53.7,25.8,54.9,24.9,54.9,23.4
		 M58.9,20.4v8.1h-3.9v-0.9c-0.9,0.8-2.1,1.3-3.8,1.3c-2.9,0-4.8-1.7-4.8-4.2s1.9-4.1,5.3-4.1h3.3v-0.3c0-1.1-0.7-1.8-1.8-1.8
		c-1.2,0-1.9,0.5-2.1,1.6l-3.8-0.8c0.6-2.5,2.8-4,5.9-4C56.6,15.3,58.9,17.1,58.9,20.4"/>
	<path id="Fill-5" class="st0" d="M73.4,20.6v7.8h-4.1v-7c0-1.5-0.9-2.5-2.2-2.5c-1.6,0-2.7,1.1-2.7,3.6v5.9h-4.1V15.7h4.1v1.2
		c1-1.1,2.4-1.6,3.9-1.6C71.4,15.3,73.4,17.4,73.4,20.6"/>
	<path id="Fill-7" class="st0" d="M83.1,23.4v-0.3h-2.8c-1,0-1.7,0.5-1.7,1.3s0.7,1.3,1.8,1.3C81.8,25.8,83.1,24.9,83.1,23.4
		 M87,20.4v8.1h-3.9v-0.9c-0.9,0.8-2.1,1.3-3.8,1.3c-2.9,0-4.8-1.7-4.8-4.2s1.9-4.1,5.3-4.1h3.3v-0.3c0-1.1-0.7-1.8-1.8-1.8
		c-1.2,0-1.9,0.5-2.1,1.6l-3.8-0.8c0.6-2.5,2.8-4,5.9-4C84.8,15.3,87,17.1,87,20.4"/>
	<polygon id="Fill-9" class="st0" points="106.7,28.5 93.4,28.5 93.4,11.4 106.6,11.4 106.6,15 97.6,15 97.6,18.2 105.9,18.2 
		105.9,21.7 97.6,21.7 97.6,24.9 106.7,24.9 	"/>
	<path id="Fill-11" class="st0" d="M121,20.6v7.8h-4.1v-7c0-1.5-0.9-2.5-2.2-2.5c-1.6,0-2.7,1.1-2.7,3.6v5.9H108V15.7h4.1v1.2
		c1-1.1,2.5-1.6,3.9-1.6C119,15.3,121,17.4,121,20.6"/>
	<path id="Fill-13" class="st0" d="M126.3,20.6h5.3c-0.4-1.4-1.4-2-2.6-2C127.7,18.6,126.6,19.4,126.3,20.6z M135.6,23.1h-9.4
		c0.3,1.5,1.4,2.5,2.8,2.5c0.9,0,2-0.2,2.7-1.5l3.6,0.7c-1.1,2.7-3.4,4-6.3,4c-3.7,0-6.8-2.7-6.8-6.8s3.1-6.8,6.8-6.8
		c3.6,0,6.5,2.6,6.6,6.8L135.6,23.1z"/>
	<path id="Fill-15" class="st0" d="M146.4,15.6l-0.2,4.1h-0.7c-2.9,0-4.4,1.5-4.4,4.8v4H137V15.7h4.1v2.4c0.9-1.5,2.3-2.6,4.4-2.6
		C145.8,15.5,146.1,15.5,146.4,15.6"/>
	<path id="Fill-17" class="st0" d="M157.1,22.1c0-2-1.5-3.3-3.1-3.3c-1.8,0-3.1,1.4-3.1,3.3s1.3,3.3,3.1,3.3
		C155.6,25.4,157.1,24.1,157.1,22.1z M161.2,28.7c0,4-3.4,6.1-7.5,6.1c-2.9,0-5.1-1-6.4-3.1l3.4-2.1c0.9,1.1,1.7,1.6,3,1.6
		c1.8,0,3.4-0.9,3.4-2.9v-0.9c-1,0.9-2.3,1.5-4,1.5c-3.4,0-6.2-2.7-6.2-6.8s2.9-6.8,6.2-6.8c1.7,0,3,0.5,4,1.5v-1.1h4.1L161.2,28.7z
		"/>
	<path id="Fill-19" class="st0" d="M162.6,14l1.8-3.9h4.8l-3,3.9H162.6z M162.4,28.5h4.1V15.7h-4.1V28.5z"/>
	<path id="Fill-21" class="st0" d="M176.4,23.4v-0.3h-2.8c-1,0-1.7,0.5-1.7,1.3s0.7,1.3,1.8,1.3C175.1,25.8,176.4,24.9,176.4,23.4
		 M180.3,20.4v8.1h-3.9v-0.9c-0.9,0.8-2.1,1.3-3.8,1.3c-2.9,0-4.8-1.7-4.8-4.2s1.9-4.1,5.3-4.1h3.3v-0.3c0-1.1-0.7-1.8-1.8-1.8
		c-1.2,0-1.9,0.5-2.1,1.6l-3.8-0.8c0.6-2.5,2.8-4,5.9-4C178,15.3,180.3,17.1,180.3,20.4"/>
	<path id="Fill-23" class="st1" d="M9.2,15.6c-0.2,0-0.4,0.2-0.4,0.4c0,0,0,0,0,0.1c0.2,1.6,1.8,2.8,3.4,2.5
		c1.3-0.2,2.3-1.2,2.5-2.5c0-0.2-0.1-0.4-0.3-0.4c0,0,0,0-0.1,0H9.2z"/>
	<path id="Fill-25" class="st0" d="M8.8,10.5c-0.8,0-1.4,0.6-1.4,1.4c0,0.8,0.6,1.4,1.4,1.4c0.8,0,1.4-0.6,1.4-1.4l0,0
		C10.2,11.1,9.6,10.5,8.8,10.5"/>
	<path id="Fill-27" class="st0" d="M14.9,10.5c-0.8,0-1.4,0.6-1.4,1.4c0,0.8,0.6,1.4,1.4,1.4c0.8,0,1.4-0.6,1.4-1.4l0,0
		C16.3,11.1,15.6,10.5,14.9,10.5"/>
	<path id="Fill-29" class="st0" d="M18.5,17.7c-1,1.7-2.1,3.7-2.8,6.8H8c-0.7-3-1.8-5.1-2.8-6.8c-1.1-1.9-1.7-3-1.7-5.4
		c-0.1-4.6,3.6-8.4,8.2-8.5c4.6-0.1,8.4,3.6,8.5,8.2c0,0.1,0,0.2,0,0.3C20.2,14.7,19.5,15.8,18.5,17.7 M11.8,0.5
		C5.3,0.5,0,5.8,0,12.3c0,3.3,1,5.1,2.2,7.1c1,1.8,2.2,3.8,2.7,7.1C5,27.3,5.7,28,6.5,28h10.6c0.9,0,1.6-0.6,1.7-1.5
		c0.5-3.3,1.7-5.3,2.7-7.1c1.2-2,2.2-3.8,2.2-7.1C23.7,5.8,18.4,0.5,11.8,0.5"/>
	<path id="Fill-32" class="st0" d="M17.1,29.3H6.6c-1,0-1.7,0.8-1.7,1.7c0,1,0.8,1.7,1.7,1.7h10.6c1,0,1.7-0.8,1.7-1.7
		S18.1,29.3,17.1,29.3"/>
	<path id="Fill-34" class="st0" d="M15.4,34.1H8.3c-1,0-1.7,0.8-1.7,1.7c0,1,0.8,1.7,1.7,1.7h7.1c1,0,1.7-0.8,1.7-1.7
		C17.1,34.9,16.3,34.1,15.4,34.1C15.4,34.1,15.4,34.1,15.4,34.1"/>
</g>
</svg>
