<svg width="244" height="60" viewBox="0 0 244 60" fill="none" xmlns="http://www.w3.org/2000/svg">
<g id="Logo">
<path id="Vector" d="M82.2172 14.0789H77.5273V45.9442H82.2172V14.0789Z" fill="#00A443"/>
<path id="Vector_2" d="M104.088 23.8895C102.476 22.8673 100.602 22.3371 98.694 22.3639C96.9641 22.3639 95.4921 22.7203 94.278 23.433C93.0801 24.132 92.0597 25.0981 91.2964 26.256C91.145 26.4963 91.0009 26.7245 90.8639 26.9648V14.0774H86.4023V45.9452H90.8639V41.8247C90.9937 42.065 91.1306 42.286 91.2748 42.5071C92.0285 43.673 93.051 44.6411 94.2564 45.3301C95.4833 46.0429 96.9625 46.3992 98.694 46.3992C100.138 46.4151 101.568 46.1124 102.882 45.5127C104.154 44.9213 105.293 44.0768 106.228 43.0308C107.215 41.9191 107.98 40.629 108.482 39.23C109.042 37.6756 109.32 36.0336 109.301 34.3816C109.301 32.0142 108.831 29.932 107.891 28.1349C107.025 26.4055 105.712 24.9396 104.088 23.8895ZM104.225 37.7283C103.907 38.6578 103.41 39.5158 102.762 40.2535C102.154 40.9425 101.399 41.4868 100.554 41.8464C99.66 42.2202 98.6991 42.4067 97.7305 42.3942C95.6979 42.3942 94.0289 41.6886 92.7235 40.2775C91.4181 38.8664 90.7654 36.9011 90.7654 34.3816C90.7457 33.2386 90.9229 32.1008 91.2892 31.018C91.6086 30.0974 92.103 29.2473 92.7452 28.5145C93.3505 27.8279 94.1061 27.2902 94.9531 26.9432C95.8357 26.5882 96.7794 26.4103 97.7305 26.4194C99.7952 26.4194 101.477 27.1178 102.776 28.5145C104.075 29.9112 104.728 31.8685 104.734 34.3864C104.755 35.5212 104.583 36.6513 104.225 37.7283Z" fill="#00A443"/>
<path id="Vector_3" d="M127.85 23.8446C126.189 22.844 124.28 22.3311 122.341 22.3646C120.806 22.3453 119.282 22.6312 117.858 23.2055C116.521 23.7592 115.319 24.5923 114.331 25.6489C113.309 26.743 112.526 28.0373 112.031 29.4498C111.481 31.0376 111.211 32.7091 111.234 34.3895C111.234 36.792 111.719 38.8935 112.69 40.6938C113.611 42.4437 114.997 43.9058 116.695 44.92C118.474 45.9593 120.506 46.4873 122.567 46.4456C123.885 46.4482 125.197 46.2563 126.459 45.8762C127.726 45.4942 128.903 44.86 129.919 44.0118C131.024 43.0757 131.943 41.9404 132.629 40.665L129.169 38.5243C128.739 39.3905 128.152 40.17 127.439 40.8236C126.794 41.4025 126.033 41.8374 125.207 42.0993C124.351 42.3623 123.46 42.4927 122.564 42.4861C121.335 42.5064 120.123 42.1917 119.059 41.5756C117.998 40.9324 117.151 39.9882 116.628 38.8631C116.126 37.7831 115.838 36.6165 115.779 35.4274H132.994C133.025 35.2165 133.04 35.0038 133.04 34.7907V34.1973C133.04 31.8299 132.577 29.7589 131.651 27.9842C130.79 26.2801 129.475 24.8474 127.85 23.8446ZM117.492 28.2605C118.036 27.5608 118.75 27.0116 119.566 26.6652C120.431 26.3084 121.36 26.131 122.295 26.1438C123.146 26.1208 123.991 26.2886 124.768 26.6349C125.545 26.9813 126.234 27.4973 126.786 28.1452C127.62 29.1062 128.156 30.4268 128.393 32.107H115.912C115.98 31.6843 116.075 31.2662 116.195 30.8553C116.461 29.9167 116.901 29.0364 117.492 28.2605Z" fill="#00A443"/>
<path id="Vector_4" d="M147.972 22.3653H146.651C145.353 22.3454 144.078 22.7099 142.987 23.4128C141.909 24.1031 141.036 25.1691 140.368 26.6106V22.8194H135.916V45.9465H140.375V33.6093C140.375 31.6376 140.877 30.0591 141.879 28.8738C142.338 28.3065 142.92 27.8511 143.581 27.5423C144.242 27.2334 144.965 27.0791 145.695 27.0911H147.972V22.3653Z" fill="#00A443"/>
<path id="Vector_5" d="M166.364 26.9648C166.227 26.7245 166.086 26.4843 165.932 26.256C165.169 25.0981 164.148 24.132 162.95 23.433C161.738 22.7187 160.281 22.3623 158.58 22.3639C157.131 22.3497 155.696 22.6445 154.371 23.2288C153.084 23.8046 151.937 24.6511 151.007 25.7107C150.028 26.8242 149.271 28.1142 148.775 29.5115C148.226 31.0757 147.957 32.7241 147.98 34.3816C147.98 36.7489 148.442 38.8351 149.366 40.6403C150.225 42.3683 151.538 43.83 153.165 44.8688C154.785 45.8882 156.666 46.4172 158.58 46.392C160.281 46.392 161.746 46.0357 162.974 45.3229C164.176 44.634 165.197 43.6688 165.951 42.5071C166.095 42.286 166.23 42.0578 166.36 41.8247V45.9452H170.821V14.0774H166.364V26.9648ZM164.522 40.2535C163.909 40.9463 163.146 41.491 162.292 41.8464C161.405 42.2159 160.452 42.4022 159.491 42.3942C157.426 42.3942 155.744 41.6886 154.445 40.2775C153.146 38.8664 152.493 36.9011 152.487 34.3816C152.467 33.2386 152.644 32.1008 153.011 31.018C153.331 30.0973 153.826 29.2472 154.469 28.5145C155.074 27.8268 155.829 27.2889 156.677 26.9432C157.574 26.5854 158.532 26.4074 159.498 26.4194C161.53 26.4194 163.2 27.1178 164.507 28.5145C165.814 29.9112 166.466 31.8685 166.463 34.3864C166.476 35.5208 166.303 36.6497 165.951 37.7283C165.651 38.6583 165.164 39.5174 164.522 40.2535Z" fill="#00A443"/>
<path id="Vector_6" d="M187.075 22.3653H185.756C184.458 22.3454 183.183 22.7099 182.092 23.4128C181.014 24.1031 180.141 25.1691 179.473 26.6106V22.8194H175.012V45.9465H179.473V33.6093C179.473 31.6376 179.974 30.0591 180.975 28.8738C181.435 28.3052 182.018 27.8491 182.681 27.5401C183.344 27.2312 184.069 27.0776 184.8 27.0911H187.075V22.3653Z" fill="#00A443"/>
<path id="Vector_7" d="M204.83 23.8654C202.979 22.8411 200.891 22.3232 198.776 22.3638C197.186 22.3487 195.609 22.6425 194.131 23.2287C192.729 23.7889 191.459 24.634 190.4 25.7106C189.327 26.8025 188.489 28.1037 187.94 29.5331C187.35 31.0806 187.056 32.7254 187.075 34.3815C187.075 36.7488 187.584 38.8431 188.601 40.6642C189.576 42.443 191.025 43.9161 192.788 44.9192C194.628 45.9537 196.711 46.4802 198.821 46.4448C200.413 46.4599 201.991 46.1585 203.465 45.5582C204.861 44.9851 206.129 44.1416 207.197 43.0764C208.272 41.9945 209.109 40.6999 209.655 39.2755C210.248 37.7129 210.541 36.0527 210.519 34.3815C210.519 31.9789 210.012 29.8774 208.996 28.0771C208.022 26.316 206.581 24.8584 204.83 23.8654ZM205.421 37.7499C205.095 38.6864 204.58 39.5464 203.91 40.2774C203.274 40.9592 202.498 41.4945 201.635 41.8463C200.724 42.217 199.749 42.4032 198.766 42.3941C197.495 42.4098 196.244 42.0775 195.148 41.433C194.06 40.7769 193.182 39.8232 192.618 38.6845C191.993 37.4864 191.682 36.0521 191.683 34.3815C191.663 33.2385 191.841 32.1007 192.207 31.0179C192.529 30.0933 193.032 29.2422 193.687 28.5144C194.314 27.8221 195.093 27.2843 195.962 26.9431C196.861 26.5907 197.819 26.4129 198.785 26.4193C200.086 26.3962 201.369 26.7285 202.495 27.3804C203.585 28.032 204.469 28.9791 205.044 30.1121C205.667 31.2974 205.979 32.7237 205.979 34.3911C205.991 35.5347 205.802 36.6715 205.421 37.7499Z" fill="#00A443"/>
<path id="Vector_8" d="M218.146 41.3246C217.767 40.8537 217.577 40.1778 217.577 39.2969V14.0698H213.115V39.5828C213.088 40.728 213.322 41.8645 213.8 42.9055C214.254 43.8454 214.984 44.6242 215.893 45.1375C216.953 45.7125 218.147 45.9953 219.353 45.9568H221.856V42.0406H220.035C219.156 42.0286 218.526 41.7955 218.146 41.3246Z" fill="#00A443"/>
<path id="Vector_9" d="M242.533 27.3714C241.991 26.2624 241.206 25.2901 240.236 24.5267C239.26 23.7723 238.146 23.2157 236.956 22.8882C235.69 22.5341 234.38 22.3578 233.064 22.3644C231.095 22.3339 229.151 22.8122 227.421 23.7531C225.736 24.6941 224.42 26.1778 223.687 27.9624L227.192 29.9734C227.617 28.8867 228.374 27.9618 229.355 27.3305C230.34 26.6898 231.546 26.3695 232.973 26.3695C233.993 26.3558 235.006 26.5419 235.955 26.9173C236.841 27.2726 237.596 27.8926 238.117 28.6928C238.665 29.5129 238.939 30.59 238.939 31.9243V34.5022C238.782 34.3364 238.614 34.1731 238.436 34.0217C237.009 32.7788 234.946 32.1573 232.245 32.1573C230.63 32.1362 229.026 32.414 227.512 32.9766C226.183 33.4532 225.017 34.2972 224.148 35.4104C223.352 36.5469 222.922 37.9001 222.918 39.288C222.914 40.6759 223.335 42.0317 224.124 43.1731C224.974 44.2692 226.107 45.1118 227.401 45.6093C228.872 46.1862 230.442 46.4718 232.022 46.4502C234.753 46.4502 236.862 45.8055 238.35 44.5162C238.65 44.2549 238.925 43.9652 239.169 43.6512V45.9505H243.403V31.5134C243.44 30.0838 243.142 28.6654 242.533 27.3714ZM237.435 42.0271C236.344 42.6678 234.982 42.9881 233.35 42.9881C231.68 42.9881 230.291 42.6678 229.184 42.0271C228.077 41.3864 227.524 40.4606 227.524 39.2497C227.5 38.6665 227.644 38.0887 227.938 37.5846C228.232 37.0805 228.665 36.6712 229.184 36.4051C230.291 35.782 231.68 35.4713 233.35 35.4729C234.989 35.4729 236.35 35.7932 237.435 36.4339C237.945 36.7028 238.369 37.11 238.659 37.6088C238.949 38.1076 239.092 38.678 239.073 39.2545C239.073 40.4686 238.527 41.3936 237.435 42.0295V42.0271Z" fill="#00A443"/>
<path id="Vector_10" d="M35.5137 34.6194C35.5083 38.2863 36.9532 41.8066 39.5332 44.4123C44.5114 49.3904 51.2698 49.3808 55.5777 47.0407C60.8513 44.1793 72.7153 35.5972 60.3972 -0.00170898C60.3972 16.8019 35.5137 18.5101 35.5137 34.6194Z" fill="#FF9C1A"/>
<path id="Vector_11" d="M46.8454 14.7093C46.0285 10.3053 44.7191 5.7957 42.761 -0.00170898C42.761 16.8019 17.875 18.5101 17.875 34.6194C17.8694 38.2854 19.3124 41.8052 21.8897 44.4123C26.8679 49.3904 33.6792 49.376 37.9342 47.0407C28.0403 36.491 31.5241 24.2787 46.8454 14.7093Z" fill="#0DA9FF"/>
<path id="Vector_12" d="M29.2048 14.7093C28.3879 10.3053 27.0761 5.79571 25.1204 -0.00170898C25.1204 16.8019 0.234375 18.5101 0.234375 34.6194C0.234375 42.8819 6.92798 46.5194 6.92798 46.5194C5.8879 50.9371 5.67044 55.5085 6.28649 60.005L9.47953 59.4741C7.91784 54.0442 8.87648 48.1315 8.97498 47.5525C13.0594 49.1886 17.2711 48.7033 20.2936 47.0455C10.3853 36.491 13.8835 24.2811 29.2048 14.7093Z" fill="#00A443"/>
</g>
</svg>
