<?xml version="1.0" encoding="UTF-8"?>
<svg viewBox="0 0 220 53.54" xmlns="http://www.w3.org/2000/svg">
<g fill-rule="evenodd" data-name="Capa_1">
<path d="M218.7 8.69c.31-.27.58-.38.79-.38.31 0 .51.24.51.68 0 2.98-14.88 20.28-19.23 24.36-3.56 3.35-6.1 5.51-7.57 5.51-.48 0-.79-.24-.79-.82 0-2.22 3.36-8.11 3.36-8.11v-.17l-6.2 5.47c-1.44 1.27-3.19 1.85-4.76 1.85-2.88 0-5.38-2.26-5.38-7.46V1.74c0-1.16.79-1.74 1.78-1.74.58 0 1.27.24 1.95.65 4.36 2.77 10.01 8 14.36 15.15.69 1.13.96 2.26.96 3.39 0 3.62-2.91 7.28-5.93 10.57v.21z" fill="#e57200"/>
<path d="M49.18 35.05v3.53c0 .49-.24.7-.95.84-1.08.21-2.45.34-3.75.34-3.34 0-4.44-.91-4.44-2.48 0-.63.19-1.11.55-1.46.53-.53 1.49-.77 2.92-.77zM54 43.6c1.19-.48 1.61-1.21 1.61-2.65v-9.7c0-3.83-.68-6.06-2.31-7.61-1.75-1.66-4.59-2.42-9.19-2.42-2.48 0-4.74.16-6.34.48s-2.12 1.05-2.12 2.53c0 .9.08 2.03.18 2.71.06.39.27.52.79.45 2.51-.36 4.76-.56 6.85-.56 2.7 0 4.09.17 4.87.76.61.45.83 1.19.83 2.38v.77c-1.97-.25-4.21-.4-5.8-.4-3.75 0-6.41.72-8.01 2.23-1.25 1.18-1.93 2.89-1.93 4.95 0 4.59 3.29 7.55 10.86 7.55 3.85 0 7.52-.6 9.71-1.48Zm57.66-12.42c0-1.79.26-2.61.83-3.22.62-.66 1.69-.95 3.39-.95.64 0 1.63.06 2.71.15.54.04.71-.12.8-.55.11-.54.21-1.5.21-2.31 0-1.28-.38-2-1.34-2.41-.82-.35-2.37-.65-4.31-.65-2.54 0-4.8.61-6.38 2.01-1.46 1.3-2.35 3.26-2.35 6.73v13.97c0 .47.28.64.66.64h5.78zm-45.01-9.47v-6.77h-5.21c-.93 0-1.22.38-1.22 1.2v20.61c0 3.05.69 4.83 2 6.1 1.45 1.42 3.57 2.22 6.43 2.22 2.17 0 4.32-.51 5.98-1.23 1.28-.55 1.73-1.08 1.73-1.92 0-.32-.07-.68-.19-1.08-.16-.56-.49-1.55-.76-2.16-.12-.27-.25-.4-.48-.4-.08 0-.19.02-.36.07-1.69.48-3.56.86-4.83.86-1.18 0-1.9-.23-2.37-.7-.51-.52-.69-1.32-.69-2.62v-8.43h5.97c.91 0 1.41-.23 1.7-.75.28-.48.39-1.22.39-2.26 0-.77-.08-1.76-.18-2.24-.07-.36-.26-.49-.72-.49h-7.16Zm34.07 0h-5.21c-.93 0-1.23.38-1.23 1.2v11.97c0 1.54-.34 2.54-1.01 3.21-.71.71-1.81 1.11-3.29 1.11s-2.58-.41-3.29-1.11c-.68-.67-1.01-1.66-1.01-3.21V21.71h-5.2c-.93 0-1.23.38-1.23 1.2v12.81c0 2.89.84 5.01 2.39 6.54 1.85 1.83 4.72 2.81 8.35 2.81s6.5-.98 8.35-2.81c1.55-1.53 2.39-3.65 2.39-6.54v-14Zm31.68 31.82c4.45 0 7.4-.99 9.3-2.95 1.74-1.79 2.52-4.38 2.52-7.76V32.38c0-3.57-1.02-6.17-2.77-7.96-2-2.05-5.18-3.21-8.55-3.21-7.26 0-11.86 4.53-11.86 11.94 0 6.94 3.71 11.6 10.3 11.6 2.78 0 4.98-1.04 6.45-2.68v.99c0 1.6-.27 2.71-1.03 3.48-.91.93-2.72 1.34-5.29 1.34-1.7 0-3.87-.22-5.72-.48-.61-.09-1.01.15-1.11.89-.09.65-.14 1.61-.14 2.2 0 1.52.45 2.19 2.18 2.54 1.56.31 3.78.48 5.75.48Zm5.38-21.2v.64c0 2.25-.46 3.94-1.51 5-.81.82-1.99 1.3-3.5 1.3-3.62 0-5.12-2.44-5.12-6.11 0-4.16 2.11-6.07 5.12-6.07 1.5 0 2.77.49 3.62 1.32.91.89 1.39 2.21 1.39 3.92M29.08 13.98v27.49c0 1.06-.24 1.8-.72 2.28-.68.67-1.85.93-3.49.93-.81 0-1.84-.1-2.59-.33-.62-.18-.98-.48-1.37-1.01-4.03-5.38-9.47-12.72-14.15-19.01v19.32c0 .7-.21.93-.97.93H0V17.09c0-1.06.24-1.8.72-2.28.68-.67 1.85-.93 3.49-.93.82 0 1.84.1 2.6.33.65.19.98.48 1.38 1.01C11.75 20 17.22 27.4 22.33 34.3V14.91c0-.68.29-.92.97-.92h5.78Zm123.25 33.5c-.7-.1-1.01.29-1.11.9-.08.53-.15 1.53-.15 2.2 0 1.39.39 2.15 2.14 2.49 1.46.29 3.78.46 5.7.46 4.11 0 6.95-1.04 8.68-2.9 1.78-1.9 2.49-4.63 2.49-8.49V21.7h-5.32c-.77 0-1.12.42-1.12 1.19v11.13c0 1.83-.34 3.07-1.11 3.9-.78.85-2 1.29-3.51 1.29-1.36 0-2.36-.38-3.01-1.09-.69-.77-.97-1.85-.97-3.7V21.69h-5.3c-.87 0-1.14.49-1.14 1.15v12.19c0 3.4.79 5.66 2.35 7.25 1.52 1.56 3.78 2.45 6.76 2.45 2.64 0 4.76-1.09 5.93-2.34v.59c0 1.54-.21 2.7-.89 3.5-.82.96-2.34 1.41-5 1.41-1.74 0-3.79-.22-5.42-.45Z" fill="#004571"/>
</g>
</svg>
