<svg width="160" height="52" viewBox="0 0 160 52" xmlns="http://www.w3.org/2000/svg">
    <defs>
        <linearGradient x1="42.926%" y1="85.802%" x2="58.415%" y2="17.45%" id="fhskdg7a4a">
            <stop stop-color="#009E62" offset="0%"/>
            <stop stop-color="#009E62" offset="23.46%"/>
            <stop stop-color="#95B849" offset="67.63%"/>
            <stop stop-color="#A7BC3C" offset="74.77%"/>
            <stop stop-color="#D7C51B" offset="89.08%"/>
            <stop stop-color="#FFCD00" offset="99.87%"/>
        </linearGradient>
        <linearGradient x1="8.468%" y1="60.373%" x2="91.955%" y2="25.786%" id="x2w0o3wo3b">
            <stop stop-color="#009E62" offset="0%"/>
            <stop stop-color="#95B849" offset="57.62%"/>
            <stop stop-color="#D5D625" offset="99.54%"/>
        </linearGradient>
        <linearGradient x1="25.315%" y1="89.688%" x2="69.835%" y2="20.566%" id="qtiz6nubkc">
            <stop stop-color="#95B849" offset="0%"/>
            <stop stop-color="#97B848" offset=".917%"/>
            <stop stop-color="#BCC02E" offset="21.23%"/>
            <stop stop-color="#D9C61A" offset="41.52%"/>
            <stop stop-color="#EECA0C" offset="61.54%"/>
            <stop stop-color="#FBCC03" offset="81.19%"/>
            <stop stop-color="#FFCD00" offset="100%"/>
        </linearGradient>
        <linearGradient x1="17.47%" y1="108.558%" x2="76.202%" y2="3.654%" id="9q22i2jikd">
            <stop stop-color="#95B849" offset=".054%"/>
            <stop stop-color="#98B947" offset="21.79%"/>
            <stop stop-color="#A3BB3F" offset="40.77%"/>
            <stop stop-color="#B5BE33" offset="58.71%"/>
            <stop stop-color="#CEC322" offset="76.02%"/>
            <stop stop-color="#EECA0B" offset="92.72%"/>
            <stop stop-color="#FFCD00" offset="100%"/>
        </linearGradient>
        <linearGradient x1="44.402%" y1="35.895%" x2="55.592%" y2="67.01%" id="uk41hqbwhe">
            <stop stop-color="#FFCD00" offset="0%"/>
            <stop stop-color="#EECA0B" offset="7.283%"/>
            <stop stop-color="#CEC322" offset="23.99%"/>
            <stop stop-color="#B5BE33" offset="41.31%"/>
            <stop stop-color="#A3BB3F" offset="59.26%"/>
            <stop stop-color="#98B947" offset="78.25%"/>
            <stop stop-color="#95B849" offset="100%"/>
        </linearGradient>
    </defs>
    <g fill-rule="nonzero" fill="none">
        <path d="M15.814 33.719c-.937-.162-2.003-.388-2.973-.873 0 0-.226-.129-.226.065v1.939c-.13.97.55 1.422 1.422 1.454.646.032-.065.808-.388 1.228-.484.582-.581 1.002-.388 1.26.194.259.356 0 .938.55-.517.678-.776 1.034-.873 1.195 0 0-.452.711.646 1.034-.29.84-.71 1.002-.969 1.52-.259.516.55 1 .485 1.033-1.293.84-2.23 1.777-2.392 2.391-.452 1.325-.71 2.844-1.001 4.137-.097.42-.614.807-.937.807-1.26.065-2.198 0-3.296 0-.356 0-.194-.258-.194-.258 1.13-2.1 3.748-3.813 3.328-6.366-1.131-6.915-3.134-11.407-4.298-17.45-.42-2.326.42-5.848.743-6.172.227-.258.744.905 1.584.873 0 0 1.292-1.616 2.068-2.004.614-.064 2.908.808 2.908.808.259-.064.614-1.454.743-2.165.582.162 1.52.194 2.198-.097 1.519-.678 1.454-1.195 1.68-1.163.453.065.905.937.937 1.486 0 0 0 .582.323.485.905-.226 1.551-1.26 1.907-1.26.355.064.743 1.002.84 1.713 0 0 .065.42.582.226.452-.162.71-.323 1.486-.905.097-.065.259 0 .259.097.42.84.452 1.648.937 1.68.42.033.808-.29.97-.485.16-.161.58-.581.742-.549.162.065.291 1.067 1.002 1.422.323.162.582-.065.776-.582.129-.323.452-.678.55-.678.128.032.29.581.71.84.355.226.776.258.84.032.13-.581.582-1.002.646-.808.13.259.324.388.582.614.323.227.55.259.905.227 1.13-.13 1.874-1.002 1.68-1.131-1.034-.55-1.422-1.68-1.486-2.456.032-.453.032-1.648 1.13-2.1.518-.227 1.39-.195 1.81.16.388.356.614.68.614 1.261 0 .452-.097.937-.517 1.163-.29.162-.808.162-1.13-.064-.291-.226-.388-.614-.615-.776h-.064c-.226.55.129 1.163.452 1.551.614.711 1.616.647 1.939.453 1.196-.453 2.165-2.876 2.391-3.426.453-1.13.84-2.39 1.487-3.554.581-1.034 2.003-2.165 4.265-2.165 1.907 0 4.072 1.712 4.169 4.2.097 2.101-.647 2.877-1.454 3.814-.517.581-.582.743-.388.904.614.453.775.55 1.228 1.067 1.906 2.326 2.746 5.009 3.813 7.723.258.646.388 1.422.71 2.003 1.455 1.875 2.877 2.456 3.07 2.715.13.161-.161.194-.161.646 0 .13.258.388.517.388.13 0 .743.097.646.29-.388.615-.581 1.035-.55 1.422.066.453.292 0 .906.033.161 0 .194.097.129.226-.355.582-.42.905-.485 1.325-.097.258.162.937.808.808.065 0 .13.032.13.097-.065.194-.42.355-.582.937-.356 1.228-.13 2.003.905 3.199.42.485.678.485 1.001.872-1.292 1.164-1.098 2.812-1.325 3.749-.064.29-.29.323-.29.323l-4.007.614c-.324.065-.582-.065-.194-.517.97-1.163 2.262-2.36 2.94-3.587-.097-.42-.323-.872-.614-1.39-1.292-2.132-2.52-4.103-3.748-6.236-.711-1.228-1.002-1.163-1.002-1.163-2.973-.55-4.815-1.034-7.044-2.456-.162-.033-.162.161-.162.161 0 .582-.065 2.618.162 2.973.71 1.067 2.165 1.196 2.165 1.196s.226.355-.485.937c0 0-.13.097-.097.226.097.29.485.29.776.226.161-.032-.097.485-.647.97-.129.129.033.55.227.646.064.032.064.065.032.13-.194.225-1.002.872-.97 1.324l.162 2.65s0 .097-.032.13a.5.5 0 0 1-.194.096l-3.91.97c-.097.032-.226 0-.323-.13-.097-.129.032-.355.032-.355l2.423-3.652.13-.194c.161-.84-.582-1.615-1.067-2.23-.84-1.066-2.132-2.294-2.132-2.294-.711-.614-1.228-2.908-1.39-3.522-.064-.226-.323-.13-.517.065-.517.55-.97 1.163-1.196 1.55-.193.356-.258 1.261-.226 1.423.065.258.259.71 1.196.678-.097.55-.259.84-.55 1.099 0 0-.161.065-.064.194.29.29.646.485.646.485-.129.387-.29.678-.517.937-.581.743.226.614.226.614-.193.517-.323.84-.581 1.26-.679 1.099-.194 2.714-.323 3.522-.033.194-.259.356-.55.388l-4.104.162c-.258 0-.226-.291-.064-.453l2.811-3.457c.226-.291 0-.518-.097-.647 0 0-1.81-2.423-2.391-4.395-.226-.775-.42-1.81-.42-1.81-.614.066-2.262.292-2.165 1.164-.13.388.355 1.777.678 1.777 0 0-.032.065 0 0 0 0 .033.42-.517.614-.646.227-1.325.711-1.228.97.097.194.388.29.517.29v.033c-.614.84-1.228.646-1.745 1.066-.193.162-.226.453.388.453-.484.517-.775.452-1.098.614 0 0-.55.194-.453.388.291.517.356.42.162.646-.259.323-.356.388-.776.517-.355.097-.614.323-.614.323-.29.323-.194.582-.388 1.099-.29.775-.775 1.777-1.324 2.423 0 0-.097.13-.227.033l-2.585-2.166c-.226-.193-.097-.484-.097-.484.259-.55.776-.711 1.293-1.034.743-.453 1.422-.873 2.068-1.616.13-.162.194-.517.194-.517.323-2.003.937-4.298 1.39-6.269.129-.614-.55-.452-.55-.452-.905.161-1.616.323-2.327.258-.226-.032-.29.065-.452.517-.226.55-.582 1.713-.259 2.165.55.743 1.196.453 1.196.55-.194.743-.808 1.066-1.034 1.228-.29.226-.355.387-.388.517 0 .129.033.549.679.452v.065s-.226.517-.808 1.001c-.258.194-.55.42-.679.582-.129.162-.129.485.356.485v.129s-.323.775-.905 1.066c-.194.097-.582.453-.743.808-.388.808-.84 3.038-1.196 2.78-.71-.486-2.423-2.069-2.423-2.069-.194-.162-.227-.29-.227-.29-.096-.389.808-.776 1.131-1.067.517-.453 1.228-.808 1.358-1.777.161-1.422-.323-2.715-.517-3.555-.194-.905-.582-2.617-.517-3.522.097-.291-.033-.291-.033-.291zm20.908-13.992c-.065.065-.065.13.032.13.84 0 1.81-.453 2.617-.938.711-.452 1.228-.84 2.004-1.874 0 0 .42.064 1.97 0 1.584-.097 2.618-1.099 2.683-2.553.097-1.777-1.551-3.328-3.425-2.844-1.325.356-1.713 1.325-2.23 2.165-.84 1.422-1.81 3.975-3.555 5.817 0-.032-.064.032-.096.097m-11.827.743c.161-.161.614-.646.743-.55.258.227.29 1.067 1.002 1.423" fill="url(#fhskdg7a4a)"/>
        <path d="M12.97 8.934c.84-.71 1.552-1.228 4.428-2.682.258-.13-.259-1.939-.55-3.102-.097-.42-.42-.517-.581-.485-3.684.937-6.948 2.682-7.659 1.939l-3.684-2.78c-.29-.225-.614-.031-.581.356.194 1.454.355 2.262.484 3.167.033.194 0 .323-.161.323-.84 0-1.648.614-2.133 1.454C1.855 8.32 1.208 9.451.077 10c-.064.033-.097.13-.064.194.226.453.646.743 1.066.873.452.161.679.064 1.034.226.065.032.097.097.065.162-.033.096-.097.161-.13.258-.937 1.713.162 3.878-1.486 5.235-.065.065-.065.194.065.226 1.906.323 2.488-1.034 2.714-.775-.582 1.712-.29 1.97-.646 4.168-.065.485-.42 1.131-.13 1.034 2.456-.71 2.909-1.712 3.07-1.874.194-.194.259-.679.808.226.13.194.291.453.388.388.065 0 .162-.162.194-.226.485-.679 1.066-1.067 1.745-1.357.032 0 .064-.033.097-.033.84.097 1.55.388 2.553.776.064.032.161 0 .193-.065.42-1.422-.258-2.682-.258-2.876.032-.194.13-.097.452.259.744.743 1.94.808 2.618.614.355-.097.872-.356 1.034-.582.064-.097 0-.194-.097-.226-2.1-.291-2.197-2.456-3.07-3.878-.065-.065-.097-.194-.065-.226l.647.323s2.94.614 3.07.646c.29.033.42-.29.42-.29.032-.097.194-.808.194-1.422 0-.291-.324-.453-.453-.323-.065.064-.097.129-.161.161-.065.065-.162.065-.259.032-.743-.193-1.002-.29-1.81-.614l-1.066-1.68c-.065-.258.097-.355.162-.42zm-2.617-.872c-.452 0-.84-.388-.84-.938 0-.549.388-.937.84-.937.517 0 .905.388.905.937 0 .55-.388.938-.905.938z" fill="url(#x2w0o3wo3b)"/>
        <path d="m25.38 12.618 3.36-2.973s.42-.452.905-.29c.323.096.484.42.55.58.064.162 1.389 3.038 1.389 3.038s.226.485.614.42c0 0 .517-.097.517-.646l-.162-3.296s-.032-.55.29-.71c.195-.098.453-.065.68.064a129.92 129.92 0 0 1 1.518 1.163c.937.711 1.519.097 1.39-.388-.13-.484-.937-1.518-.937-1.518 0-.033-.84-1.164-.97-1.39-.13-.226-.258-.452-.194-.679.097-.258.291-.323.291-.323s.162-.064.453-.032c.29.065.743-.13.42-.614 0 0-.679-.97-2.165-1.648.646 1.163.614 2.553-.162 3.587-1.099 1.454-3.264 1.648-4.847.42-1.584-1.196-2.004-3.36-.905-4.815.808-1.066 2.165-1.454 3.458-1.099C30.162.791 29.548.435 29.548.435c-1.81-1.066-1.713.162-1.713.162s.032.55-.064.71c-.097.13-.194.389-1.293.195-.97-.162-1.066-.194-1.099-.194-1.939-.388-2.197-.42-2.423.032-.226.517.905 1.196.905 1.196l1.68 1.002s.226.129.194.355c0 .194-.065.259-.323.388-.259.129-3.523 1.454-3.555 1.454 0 0-.582.258-.258.775.096.13.323.194.646.194.388 0 3.102-.032 3.102-.032s.582-.065.84.323c.226.323-.064.905-.064.905l-1.875 3.748s-.355.679.097 1.034c.485.453 1.034-.064 1.034-.064z" fill="url(#qtiz6nubkc)"/>
        <path d="M75.337 29.841c0 3.264-2.262 5.397-5.332 5.397-1.325 0-2.52-.453-3.36-1.422v5.106h-2.456V24.574h2.358v1.39c.84-1.002 2.036-1.487 3.49-1.487 3.006-.032 5.3 2.1 5.3 5.364zm-2.52 0c0-2.003-1.325-3.296-3.103-3.296-1.777 0-3.134 1.293-3.134 3.296 0 2.004 1.357 3.296 3.134 3.296 1.778 0 3.102-1.292 3.102-3.296zM77.664 20.47h2.455v14.638h-2.455z" fill="#009E62"/>
        <path d="M93.207 30.617h-8.24c.29 1.55 1.583 2.52 3.393 2.52 1.195 0 2.1-.387 2.843-1.13l1.325 1.518c-.937 1.131-2.423 1.713-4.233 1.713-3.522 0-5.817-2.262-5.817-5.397 0-3.134 2.295-5.396 5.43-5.396 3.069 0 5.331 2.165 5.331 5.429 0 .226 0 .517-.032.743zm-8.273-1.648h5.978c-.194-1.519-1.357-2.553-2.973-2.553-1.615 0-2.779 1.034-3.005 2.553z" fill="#95B849"/>
        <path d="M105.97 29.066v6.042h-2.455v-5.72c0-1.873-.937-2.778-2.488-2.778-1.745 0-2.94 1.066-2.94 3.167v5.331H95.63V24.574h2.36v1.357c.807-.97 2.1-1.486 3.618-1.486 2.489 0 4.363 1.454 4.363 4.62z" fill="url(#9q22i2jikd)"/>
        <path d="M108.782 21.343c0-.84.679-1.487 1.583-1.487.905 0 1.584.614 1.584 1.422 0 .873-.646 1.551-1.584 1.551-.904 0-1.583-.646-1.583-1.486zm.323 3.231h2.456v10.534h-2.456V24.574z" fill="url(#uk41hqbwhe)"/>
        <path d="M121.126 34.527c-.582.485-1.486.71-2.359.71-2.294 0-3.619-1.227-3.619-3.554V26.61h-1.745v-1.971h1.745v-2.392h2.456v2.392h2.811v1.97h-2.811v5.01c0 1.034.517 1.583 1.454 1.583.517 0 1.002-.13 1.39-.42l.678 1.745zM133.34 24.574v10.534h-2.326v-1.324c-.775.969-2.036 1.486-3.393 1.486-2.714 0-4.524-1.486-4.524-4.653v-6.01h2.456v5.687c0 1.906.905 2.811 2.456 2.811 1.713 0 2.876-1.066 2.876-3.167v-5.332h2.456v-.032zM159.968 30.617h-8.24c.29 1.55 1.583 2.52 3.393 2.52 1.195 0 2.1-.387 2.843-1.13l1.325 1.518c-.937 1.131-2.423 1.713-4.233 1.713-3.522 0-5.817-2.262-5.817-5.397 0-3.134 2.295-5.396 5.43-5.396 3.069 0 5.331 2.165 5.331 5.429 0 .226 0 .517-.032.743zm-8.273-1.648h5.978c-.194-1.519-1.357-2.553-2.973-2.553-1.615 0-2.779 1.034-3.005 2.553zM146.88 20.47v14.638h-2.358v-1.357c-.84 1.002-2.036 1.487-3.49 1.487-3.07 0-5.332-2.133-5.332-5.397 0-3.263 2.262-5.396 5.332-5.396 1.357 0 2.552.452 3.393 1.422V20.47h2.455zm-2.423 9.371c0-2.003-1.357-3.296-3.135-3.296-1.777 0-3.134 1.293-3.134 3.296 0 2.004 1.357 3.296 3.134 3.296 1.778 0 3.135-1.292 3.135-3.296z" fill="#009E62"/>
    </g>
</svg>
