<?xml version="1.0" encoding="UTF-8"?>
<svg id="Capa_2" data-name="Capa 2" xmlns="http://www.w3.org/2000/svg" viewBox="0 0 347.63 180">
  <defs>
    <style>
      .cls-1 {
        fill: #f37904;
      }

      .cls-1, .cls-2 {
        stroke-width: 0px;
      }

      .cls-2 {
        fill: #511d8e;
      }
    </style>
  </defs>
  <g id="Capa_1-2" data-name="Capa 1">
    <g>
      <path class="cls-1" d="m264.03,0c-26.65,0-50.39,13.43-65.69,34.34-.66-.02-1.31-.05-1.98-.05-30.78,0-55.73,26.86-55.73,60s24.95,60,55.73,60c2.9,0,5.74-.24,8.52-.7,15.13,16.32,36.05,26.41,59.16,26.41,46.17,0,83.6-40.29,83.6-90S310.2,0,264.03,0Z"/>
      <path class="cls-2" d="m181.52,135.99c-3.27,0-6.43-.45-9.47-1.34-3.05-.89-5.75-2.27-8.11-4.15-2.36-1.88-4.22-4.22-5.59-7.04-1.36-2.81-2.04-6.1-2.04-9.85,0-5.07,1-9.13,3-12.18,2-3.05,4.68-5.37,8.04-6.97,3.36-1.6,7.24-2.68,11.65-3.24,4.4-.56,8.97-.84,13.69-.84h10.36c0-2.72-.48-5.14-1.43-7.25-.95-2.11-2.38-3.75-4.29-4.93-1.91-1.17-4.36-1.76-7.36-1.76-1.91,0-3.75.26-5.52.77-1.77.52-3.25,1.25-4.43,2.18-1.18.94-1.95,2.16-2.32,3.66h-19.35c.55-4.13,1.82-7.67,3.82-10.63,2-2.96,4.5-5.37,7.5-7.25,3-1.88,6.29-3.26,9.88-4.15,3.59-.89,7.29-1.34,11.11-1.34,10.45,0,18.17,3.08,23.17,9.22,5,6.15,7.49,14.86,7.49,26.12v39.99h-8c-5.11,0-9.29-4.24-9.44-9.57h0c-2.27,3.29-4.84,5.68-7.7,7.18-2.86,1.5-5.61,2.44-8.24,2.82-2.64.37-4.77.56-6.4.56Zm4.36-15.63c3.18,0,6.09-.66,8.72-1.97,2.63-1.31,4.72-3.1,6.27-5.35,1.54-2.25,2.32-4.79,2.32-7.6v-1.83h-13.08c-1.91,0-3.75.1-5.52.28-1.77.19-3.36.54-4.77,1.05-1.41.52-2.52,1.34-3.34,2.47-.82,1.13-1.23,2.63-1.23,4.51s.48,3.45,1.43,4.72c.95,1.27,2.25,2.21,3.88,2.81,1.63.61,3.41.92,5.31.92Z"/>
      <path class="cls-2" d="m230.31,135V55.71c0-10.89,7.91-19.71,18-19.71h0v79.07c0,11.01-7.91,19.93-18,19.93h0Z"/>
      <path class="cls-2" d="m289.07,135.68c-10.19,0-18.04-2.79-23.53-8.38-5.49-5.58-8.24-14.01-8.24-25.27v-19.32c0-10.89,8.26-19.71,18.45-19.71h0v37.62c0,3.38.46,6.36,1.38,8.94.92,2.58,2.37,4.62,4.35,6.12,1.98,1.5,4.55,2.25,7.71,2.25,3.43,0,6.06-.8,7.91-2.39,1.84-1.6,3.12-3.73,3.82-6.41.7-2.68,1.06-5.51,1.06-8.52v-18.05c0-10.81,8.2-19.57,18.32-19.57h0v39.03c0,11.73-2.75,20.28-8.24,25.63-5.49,5.35-13.16,8.03-23,8.03Z"/>
      <path class="cls-2" d="m118.07,135.68c-10.19,0-18.04-2.79-23.53-8.38-5.49-5.58-8.24-14.01-8.24-25.27v-19.32c0-10.89,8.26-19.71,18.45-19.71h0v37.62c0,3.38.46,6.36,1.38,8.94.92,2.58,2.37,4.62,4.35,6.12,1.98,1.5,4.55,2.25,7.71,2.25,3.43,0,6.06-.8,7.91-2.39,1.84-1.6,3.12-3.73,3.82-6.41.7-2.68,1.06-5.51,1.06-8.52v-18.05c0-10.81,8.2-19.57,18.32-19.57h0v39.03c0,11.73-2.75,20.28-8.24,25.63-5.49,5.35-13.16,8.03-23,8.03Z"/>
      <path class="cls-2" d="m284.31,63l16.64-27h0c8.74,0,13.54,10.85,7.97,18.04h0c-4.4,5.68-10.94,8.96-17.85,8.96h-6.77Z"/>
      <path class="cls-2" d="m58.92,74.71c-2.06-4.76-5.99-8.55-10.9-10.51-.08-.03-.15-.07-.22-.1-.04-.01-.07-.03-.11-.04-3.66-1.45-7.85-2.18-12.57-2.18-7.8,0-14.31,1.74-19.51,5.21-5.2,3.47-9.1,8.17-11.7,14.08-2.6,5.91-3.9,12.49-3.9,19.71,0,6.57,1.16,12.7,3.47,18.38,2.31,5.68,5.97,10.26,10.98,13.73,5.01,3.47,11.51,5.21,19.51,5.21,2.6,0,5.32-.31,8.16-.92,2.84-.61,5.56-1.62,8.16-3.03,2.6-1.41,4.77-3.47,6.5-6.2v5.21c0,3.66-.48,7.02-1.44,10.07-.96,3.05-2.7,5.51-5.2,7.39-2.51,1.88-6.02,2.82-10.55,2.82-2.41,0-4.7-.33-6.86-.99-2.17-.66-4-1.62-5.49-2.89-1.49-1.27-2.58-2.84-3.25-4.72H3.32c1.25,6.19,3.61,11.26,7.08,15.21,3.47,3.94,7.71,6.83,12.72,8.66,5.01,1.83,10.5,2.75,16.47,2.75,9.25,0,16.64-1.78,22.18-5.35,5.54-3.57,9.51-8.61,11.92-15.14,2.41-6.53,3.61-14.29,3.61-23.3V63c-8.22,0-15.28,4.82-18.39,11.71Zm-20.48,45.73c-4.43,0-8-.92-10.69-2.75-2.7-1.83-4.62-4.27-5.78-7.32-1.16-3.05-1.73-6.36-1.73-9.93s.55-6.78,1.66-9.93c1.11-3.14,3.01-5.77,5.71-7.88,2.7-2.11,6.36-3.17,10.98-3.17,4.24,0,7.71.92,10.4,2.75,2.7,1.83,4.72,4.27,6.07,7.32,1.35,3.05,2.02,6.5,2.02,10.35s-.68,7.06-2.02,10.21c-1.35,3.15-3.4,5.66-6.14,7.53-2.75,1.88-6.24,2.82-10.48,2.82Z"/>
    </g>
  </g>
</svg>