<svg width="188" height="50" viewBox="0 0 188 50" fill="none" xmlns="http://www.w3.org/2000/svg">
<path d="M36.8669 14.3498V39.3355C36.8908 39.7092 36.842 40.0843 36.7234 40.4373C36.6048 40.7903 36.4191 41.1139 36.1776 41.3881C35.9361 41.6622 35.644 41.881 35.3194 42.0311C34.9947 42.1811 34.6445 42.2592 34.2902 42.2604C33.9333 42.2686 33.5789 42.1969 33.2501 42.05C32.9213 41.9031 32.6256 41.6844 32.3823 41.4083C32.139 41.1321 31.9536 40.8047 31.8384 40.4474C31.7231 40.0902 31.6805 39.7113 31.7135 39.3355V23.9407C31.7135 17.9676 27.6955 13.6339 22.1562 13.6339C20.8777 13.6136 19.6086 13.8674 18.4254 14.3801C17.2423 14.8928 16.1697 15.6538 15.2724 16.6171C14.3751 17.5804 13.6717 18.726 13.2047 19.9847C12.7377 21.2434 12.5168 22.5892 12.5553 23.9407V39.3355C12.5882 39.7113 12.5456 40.0902 12.4304 40.4474C12.3151 40.8047 12.1297 41.1321 11.8864 41.4083C11.6432 41.6844 11.3474 41.9031 11.0186 42.05C10.6898 42.1969 10.3354 42.2686 9.97857 42.2604C9.62764 42.2552 9.28144 42.174 8.96133 42.0219C8.64121 41.8697 8.35396 41.6499 8.1173 41.3758C7.88064 41.1017 7.69957 40.7793 7.58529 40.4284C7.471 40.0775 7.42588 39.7055 7.45276 39.3355V14.3498H0.173828V38.7351C0.173828 45.0546 4.31555 49.6422 10.015 49.6422C15.7144 49.6422 19.907 45.0238 19.907 38.7351V23.6097C19.8819 23.2792 19.9219 22.9468 20.0242 22.6334C20.1266 22.32 20.2893 22.0324 20.5019 21.7888C20.7146 21.5451 20.9726 21.3507 21.2598 21.2177C21.5471 21.0847 21.8572 21.016 22.1708 21.016C22.4843 21.016 22.7945 21.0847 23.0817 21.2177C23.3689 21.3507 23.627 21.5451 23.8396 21.7888C24.0523 22.0324 24.2149 22.32 24.3173 22.6334C24.4197 22.9468 24.4596 23.2792 24.4345 23.6097V38.7351C24.4345 45.0546 28.598 49.6422 34.3266 49.6422C40.0551 49.6422 44.2114 45.0238 44.2114 38.7351V14.3498H36.8669Z" fill="#1B1B1D"/>
<path d="M64.5266 20.344C60.0646 20.344 56.9492 23.2613 55.9593 27.7566H73.305C72.104 22.8841 68.9376 20.344 64.7377 20.344H64.5266ZM64.7377 13.6011C74.1566 13.6011 80.8096 21.0137 80.8096 31.1973V34.6457H56.1704C57.2331 38.6868 60.2029 41.7581 66.2226 41.7581H77.9053V48.7935H66.259C55.7046 48.7935 48.5566 41.3809 48.5566 31.2743C48.5566 21.1676 55.0713 13.5703 64.5703 13.5703L64.7377 13.6011Z" fill="#1B1B1D"/>
<path d="M110.551 42.5057C112.247 44.1529 112.458 46.6238 110.973 48.271C110.642 48.6891 110.231 49.028 109.767 49.2653C109.302 49.5026 108.796 49.6328 108.28 49.6474C107.765 49.6619 107.252 49.5605 106.776 49.3497C106.301 49.139 105.873 48.8238 105.521 48.425L92.6376 36.8174V48.7945H85.5552V1.36328H92.6376V26.4105L105.521 14.8029C107.152 13.1556 109.488 13.1556 110.835 14.7259C112.181 16.2962 111.963 18.6978 110.267 20.345L98.0167 31.3522L110.551 42.5057Z" fill="#1B1B1D"/>
<path d="M115.836 48.7949V14.3492H123.115V48.7949H115.836ZM178.697 5.30482C178.745 4.04306 179.252 2.84966 180.113 1.97465C180.974 1.09964 182.122 0.610929 183.316 0.610929C184.51 0.610929 185.658 1.09964 186.519 1.97465C187.38 2.84966 187.887 4.04306 187.934 5.30482C187.959 5.96251 187.858 6.6187 187.637 7.23403C187.416 7.84936 187.08 8.41115 186.648 8.88572C186.217 9.36028 185.699 9.73783 185.127 9.99574C184.554 10.2536 183.938 10.3866 183.316 10.3866C182.693 10.3866 182.077 10.2536 181.505 9.99574C180.932 9.73783 180.415 9.36028 179.983 8.88572C179.552 8.41115 179.216 7.84936 178.995 7.23403C178.774 6.6187 178.673 5.96251 178.697 5.30482ZM114.868 5.30482C114.863 4.66563 114.977 4.03163 115.206 3.43998C115.435 2.84834 115.773 2.31093 116.201 1.85928C116.629 1.40764 117.138 1.05086 117.697 0.8098C118.257 0.568744 118.857 0.448268 119.461 0.455469C120.069 0.447316 120.671 0.566744 121.234 0.806793C121.797 1.04684 122.31 1.40274 122.742 1.85386C123.174 2.30498 123.517 2.84232 123.751 3.43472C123.985 4.02712 124.105 4.66278 124.105 5.30482C124.098 6.60551 123.606 7.85074 122.737 8.7712C121.868 9.69166 120.691 10.2133 119.461 10.2234C118.236 10.2133 117.065 9.68982 116.204 8.76784C115.343 7.84586 114.863 6.60055 114.868 5.30482Z" fill="#1B1B1D"/>
<path d="M179.672 48.7953V41.7599V21.3927V14.3496H186.966V41.7599V48.7953H179.672Z" fill="#1B1B1D"/>
<path d="M166.279 14.3499V39.3356C166.303 39.7094 166.254 40.0844 166.135 40.4374C166.017 40.7905 165.831 41.114 165.589 41.3882C165.348 41.6623 165.056 41.8811 164.731 42.0312C164.407 42.1812 164.056 42.2593 163.702 42.2606C163.346 42.2676 162.992 42.1951 162.664 42.0477C162.336 41.9004 162.042 41.6815 161.799 41.4055C161.557 41.1294 161.372 40.8024 161.257 40.4457C161.142 40.089 161.1 39.7107 161.133 39.3356V23.9408C161.133 17.9677 157.107 13.6341 151.575 13.6341C150.296 13.6126 149.026 13.8657 147.842 14.3779C146.658 14.8902 145.585 15.651 144.687 16.6144C143.789 17.5778 143.085 18.7237 142.617 19.983C142.15 21.2422 141.929 22.5886 141.967 23.9408V39.3356C142 39.7114 141.957 40.0903 141.842 40.4476C141.727 40.8048 141.542 41.1322 141.298 41.4084C141.055 41.6845 140.759 41.9032 140.43 42.0501C140.102 42.197 139.747 42.2687 139.39 42.2606C139.04 42.2553 138.693 42.1742 138.373 42.022C138.053 41.8699 137.766 41.65 137.529 41.3759C137.292 41.1018 137.111 40.7794 136.997 40.4285C136.883 40.0776 136.838 39.7056 136.865 39.3356V14.3499H129.549V38.7352C129.549 45.0547 133.691 49.6424 139.39 49.6424C145.09 49.6424 149.282 45.0239 149.282 38.7352V23.6099C149.251 23.2752 149.287 22.9374 149.387 22.6181C149.486 22.2988 149.648 22.0052 149.862 21.7561C150.075 21.5069 150.336 21.3079 150.627 21.1716C150.917 21.0354 151.232 20.965 151.55 20.965C151.868 20.965 152.182 21.0354 152.473 21.1716C152.764 21.3079 153.024 21.5069 153.238 21.7561C153.451 22.0052 153.613 22.2988 153.713 22.6181C153.813 22.9374 153.848 23.2752 153.817 23.6099V38.7352C153.817 45.0547 157.973 49.6424 163.702 49.6424C169.431 49.6424 173.594 45.0239 173.594 38.7352V14.3499H166.279Z" fill="#1B1B1D"/>
</svg>
